<svg xmlns="http://www.w3.org/2000/svg" xmlns:xlink="http://www.w3.org/1999/xlink" contentStyleType="text/css" data-diagram-type="ACTIVITY" height="1756px" preserveAspectRatio="none" style="width:337px;height:1756px;background:#FFFFFF;" version="1.1" viewBox="0 0 337 1756" width="337px" zoomAndPan="magnify"><defs/><g><ellipse cx="180.0918" cy="20" fill="#222222" rx="10" ry="10" style="stroke:#222222;stroke-width:1;"/><rect fill="#F1F1F1" height="33.9688" rx="12.5" ry="12.5" style="stroke:#181818;stroke-width:0.5;" width="85.9883" x="137.0977" y="50"/><text fill="#000000" font-family="sans-serif" font-size="12" lengthAdjust="spacing" textLength="65.9883" x="147.0977" y="71.1387">Login Page</text><rect fill="#F1F1F1" height="33.9688" rx="12.5" ry="12.5" style="stroke:#181818;stroke-width:0.5;" width="281.1113" x="39.5361" y="103.9688"/><text fill="#000000" font-family="sans-serif" font-size="12" lengthAdjust="spacing" textLength="261.1113" x="49.5361" y="125.1074">Select User Role (Admin, Student, Teacher)</text><rect fill="#FFFFFF" fill-opacity="0.00000" height="320.1719" style="stroke:#000000;stroke-width:1.5;" width="291.8066" x="25.1226" y="147.9375"/><path d="M119.8267,147.9375 L119.8267,157.2344 L109.8267,167.2344 L25.1226,167.2344 " fill="#FFFFFF" fill-opacity="0.00000" style="stroke:#000000;stroke-width:1.5;"/><text fill="#000000" font-family="sans-serif" font-size="14" lengthAdjust="spacing" textLength="84.7041" x="28.1226" y="161.9326">Signup Flow</text><rect fill="#F1F1F1" height="33.9688" rx="12.5" ry="12.5" style="stroke:#181818;stroke-width:0.5;" width="196.7773" x="81.7031" y="184.2344"/><text fill="#000000" font-family="sans-serif" font-size="12" lengthAdjust="spacing" textLength="176.7773" x="91.7031" y="205.373">Enter Name, Email, Password</text><rect fill="#F1F1F1" height="33.9688" rx="12.5" ry="12.5" style="stroke:#181818;stroke-width:0.5;" width="159.5" x="100.3418" y="238.2031"/><text fill="#000000" font-family="sans-serif" font-size="12" lengthAdjust="spacing" textLength="139.5" x="110.3418" y="259.3418">Send Email Verification</text><rect fill="#F1F1F1" height="33.9688" rx="12.5" ry="12.5" style="stroke:#181818;stroke-width:0.5;" width="92.293" x="133.9453" y="292.1719"/><text fill="#000000" font-family="sans-serif" font-size="12" lengthAdjust="spacing" textLength="72.293" x="143.9453" y="313.3105">Verify Email</text><polygon fill="#F1F1F1" points="138.8901,346.1406,221.2935,346.1406,233.2935,358.1406,221.2935,370.1406,138.8901,370.1406,126.8901,358.1406,138.8901,346.1406" style="stroke:#181818;stroke-width:0.5;"/><text fill="#000000" font-family="sans-serif" font-size="11" lengthAdjust="spacing" textLength="82.4033" x="138.8901" y="361.9487">Email Verified?</text><text fill="#000000" font-family="sans-serif" font-size="11" lengthAdjust="spacing" textLength="19.0083" x="107.8818" y="355.5464">yes</text><text fill="#000000" font-family="sans-serif" font-size="11" lengthAdjust="spacing" textLength="13.7017" x="233.2935" y="355.5464">no</text><rect fill="#F1F1F1" height="33.9688" rx="12.5" ry="12.5" style="stroke:#181818;stroke-width:0.5;" width="134.0352" x="45.1226" y="380.1406"/><text fill="#000000" font-family="sans-serif" font-size="12" lengthAdjust="spacing" textLength="114.0352" x="55.1226" y="401.2793">Display Login Page</text><rect fill="#F1F1F1" height="33.9688" rx="12.5" ry="12.5" style="stroke:#181818;stroke-width:0.5;" width="97.7715" x="199.1577" y="380.1406"/><text fill="#000000" font-family="sans-serif" font-size="12" lengthAdjust="spacing" textLength="77.7715" x="209.1577" y="401.2793">Display Error</text><ellipse cx="248.0435" cy="445.1094" fill="#FFFFFF" fill-opacity="0.00000" rx="11" ry="11" style="stroke:#222222;stroke-width:1;"/><ellipse cx="248.0435" cy="445.1094" fill="#222222" rx="6" ry="6" style="stroke:#222222;stroke-width:1;"/><rect fill="#FFFFFF" fill-opacity="0.00000" height="266.2031" style="stroke:#000000;stroke-width:1.5;" width="309.1182" x="13.1226" y="478.1094"/><path d="M97.5454,478.1094 L97.5454,487.4063 L87.5454,497.4063 L13.1226,497.4063 " fill="#FFFFFF" fill-opacity="0.00000" style="stroke:#000000;stroke-width:1.5;"/><text fill="#000000" font-family="sans-serif" font-size="14" lengthAdjust="spacing" textLength="74.4229" x="16.1226" y="492.1045">Login Flow</text><rect fill="#F1F1F1" height="33.9688" rx="12.5" ry="12.5" style="stroke:#181818;stroke-width:0.5;" width="176.3223" x="91.9307" y="514.4063"/><text fill="#000000" font-family="sans-serif" font-size="12" lengthAdjust="spacing" textLength="156.3223" x="101.9307" y="535.5449">Enter Email and Password</text><rect fill="#F1F1F1" height="33.9688" rx="12.5" ry="12.5" style="stroke:#181818;stroke-width:0.5;" width="127.2793" x="116.4521" y="568.375"/><text fill="#000000" font-family="sans-serif" font-size="12" lengthAdjust="spacing" textLength="107.2793" x="126.4521" y="589.5137">Verify Credentials</text><polygon fill="#F1F1F1" points="130.4495,622.3438,229.7341,622.3438,241.7341,634.3438,229.7341,646.3438,130.4495,646.3438,118.4495,634.3438,130.4495,622.3438" style="stroke:#181818;stroke-width:0.5;"/><text fill="#000000" font-family="sans-serif" font-size="11" lengthAdjust="spacing" textLength="99.2847" x="130.4495" y="638.1519">Valid Credentials?</text><text fill="#000000" font-family="sans-serif" font-size="11" lengthAdjust="spacing" textLength="19.0083" x="99.4412" y="631.7495">yes</text><text fill="#000000" font-family="sans-serif" font-size="11" lengthAdjust="spacing" textLength="13.7017" x="241.7341" y="631.7495">no</text><rect fill="#F1F1F1" height="33.9688" rx="12.5" ry="12.5" style="stroke:#181818;stroke-width:0.5;" width="155.2813" x="29.188" y="656.3438"/><text fill="#000000" font-family="sans-serif" font-size="12" lengthAdjust="spacing" textLength="135.2813" x="39.188" y="677.4824">Redirect to Dashboard</text><rect fill="#F1F1F1" height="33.9688" rx="12.5" ry="12.5" style="stroke:#181818;stroke-width:0.5;" width="97.7715" x="204.4692" y="656.3438"/><text fill="#000000" font-family="sans-serif" font-size="12" lengthAdjust="spacing" textLength="77.7715" x="214.4692" y="677.4824">Display Error</text><ellipse cx="253.355" cy="721.3125" fill="#FFFFFF" fill-opacity="0.00000" rx="11" ry="11" style="stroke:#222222;stroke-width:1;"/><ellipse cx="253.355" cy="721.3125" fill="#222222" rx="6" ry="6" style="stroke:#222222;stroke-width:1;"/><rect fill="#FFFFFF" fill-opacity="0.00000" height="440.0781" style="stroke:#000000;stroke-width:1.5;" width="311.9482" x="11" y="754.3125"/><path d="M173.4414,754.3125 L173.4414,763.6094 L163.4414,773.6094 L11,773.6094 " fill="#FFFFFF" fill-opacity="0.00000" style="stroke:#000000;stroke-width:1.5;"/><text fill="#000000" font-family="sans-serif" font-size="14" lengthAdjust="spacing" textLength="152.4414" x="14" y="768.3076">Forgot Password Flow</text><rect fill="#F1F1F1" height="33.9688" rx="12.5" ry="12.5" style="stroke:#181818;stroke-width:0.5;" width="89.3164" x="135.4336" y="790.6094"/><text fill="#000000" font-family="sans-serif" font-size="12" lengthAdjust="spacing" textLength="69.3164" x="145.4336" y="811.748">Enter Email</text><rect fill="#F1F1F1" height="33.9688" rx="12.5" ry="12.5" style="stroke:#181818;stroke-width:0.5;" width="78.0488" x="141.0674" y="844.5781"/><text fill="#000000" font-family="sans-serif" font-size="12" lengthAdjust="spacing" textLength="58.0488" x="151.0674" y="865.7168">Send OTP</text><rect fill="#F1F1F1" height="33.9688" rx="12.5" ry="12.5" style="stroke:#181818;stroke-width:0.5;" width="83.0117" x="138.5859" y="898.5469"/><text fill="#000000" font-family="sans-serif" font-size="12" lengthAdjust="spacing" textLength="63.0117" x="148.5859" y="919.6855">Verify OTP</text><polygon fill="#F1F1F1" points="143.144,952.5156,217.0396,952.5156,229.0396,964.5156,217.0396,976.5156,143.144,976.5156,131.144,964.5156,143.144,952.5156" style="stroke:#181818;stroke-width:0.5;"/><text fill="#000000" font-family="sans-serif" font-size="11" lengthAdjust="spacing" textLength="73.8955" x="143.144" y="968.3237">OTP Verified?</text><text fill="#000000" font-family="sans-serif" font-size="11" lengthAdjust="spacing" textLength="19.0083" x="112.1357" y="961.9214">yes</text><text fill="#000000" font-family="sans-serif" font-size="11" lengthAdjust="spacing" textLength="13.7017" x="229.0396" y="961.9214">no</text><rect fill="#F1F1F1" height="33.9688" rx="12.5" ry="12.5" style="stroke:#181818;stroke-width:0.5;" width="142.8125" x="34.7148" y="986.5156"/><text fill="#000000" font-family="sans-serif" font-size="12" lengthAdjust="spacing" textLength="122.8125" x="44.7148" y="1007.6543">Enter New Password</text><rect fill="#F1F1F1" height="33.9688" rx="12.5" ry="12.5" style="stroke:#181818;stroke-width:0.5;" width="158.1113" x="27.0654" y="1040.4844"/><text fill="#000000" font-family="sans-serif" font-size="12" lengthAdjust="spacing" textLength="138.1113" x="37.0654" y="1061.623">Confirm New Password</text><rect fill="#F1F1F1" height="33.9688" rx="12.5" ry="12.5" style="stroke:#181818;stroke-width:0.5;" width="124.0742" x="44.084" y="1094.4531"/><text fill="#000000" font-family="sans-serif" font-size="12" lengthAdjust="spacing" textLength="104.0742" x="54.084" y="1115.5918">Update Password</text><rect fill="#F1F1F1" height="33.9688" rx="12.5" ry="12.5" style="stroke:#181818;stroke-width:0.5;" width="116.3516" x="47.9453" y="1148.4219"/><text fill="#000000" font-family="sans-serif" font-size="12" lengthAdjust="spacing" textLength="96.3516" x="57.9453" y="1169.5605">Display Success</text><rect fill="#F1F1F1" height="33.9688" rx="12.5" ry="12.5" style="stroke:#181818;stroke-width:0.5;" width="97.7715" x="205.1768" y="986.5156"/><text fill="#000000" font-family="sans-serif" font-size="12" lengthAdjust="spacing" textLength="77.7715" x="215.1768" y="1007.6543">Display Error</text><ellipse cx="254.0625" cy="1051.4844" fill="#FFFFFF" fill-opacity="0.00000" rx="11" ry="11" style="stroke:#222222;stroke-width:1;"/><ellipse cx="254.0625" cy="1051.4844" fill="#222222" rx="6" ry="6" style="stroke:#222222;stroke-width:1;"/><rect fill="#FFFFFF" fill-opacity="0.00000" height="244.1719" style="stroke:#000000;stroke-width:1.5;" width="292.6445" x="33.7695" y="1205.1924"/><path d="M316.4141,1205.1924 L316.4141,1214.4893 L306.4141,1224.4893 L33.7695,1224.4893 " fill="#FFFFFF" fill-opacity="0.00000" style="stroke:#000000;stroke-width:1.5;"/><text fill="#000000" font-family="sans-serif" font-size="14" lengthAdjust="spacing" textLength="272.6445" x="36.7695" y="1219.1875">Profile Management (Student/Teacher)</text><rect fill="#F1F1F1" height="33.9688" rx="12.5" ry="12.5" style="stroke:#181818;stroke-width:0.5;" width="90.3418" x="134.9209" y="1241.4893"/><text fill="#000000" font-family="sans-serif" font-size="12" lengthAdjust="spacing" textLength="70.3418" x="144.9209" y="1262.6279">View Profile</text><rect fill="#F1F1F1" height="33.9688" rx="12.5" ry="12.5" style="stroke:#181818;stroke-width:0.5;" width="105.0605" x="127.5615" y="1295.458"/><text fill="#000000" font-family="sans-serif" font-size="12" lengthAdjust="spacing" textLength="85.0605" x="137.5615" y="1316.5967">Update Profile</text><rect fill="#F1F1F1" height="33.9688" rx="12.5" ry="12.5" style="stroke:#181818;stroke-width:0.5;" width="147.0664" x="106.5586" y="1349.4268"/><text fill="#000000" font-family="sans-serif" font-size="12" lengthAdjust="spacing" textLength="127.0664" x="116.5586" y="1370.5654">Save Profile Changes</text><rect fill="#F1F1F1" height="33.9688" rx="12.5" ry="12.5" style="stroke:#181818;stroke-width:0.5;" width="160.7246" x="99.7295" y="1403.3955"/><text fill="#000000" font-family="sans-serif" font-size="12" lengthAdjust="spacing" textLength="140.7246" x="109.7295" y="1424.5342">Display Updated Profile</text><rect fill="#FFFFFF" fill-opacity="0.00000" height="244.1719" style="stroke:#000000;stroke-width:1.5;" width="213.666" x="73.2588" y="1459.3643"/><path d="M224.7969,1459.3643 L224.7969,1468.6611 L214.7969,1478.6611 L73.2588,1478.6611 " fill="#FFFFFF" fill-opacity="0.00000" style="stroke:#000000;stroke-width:1.5;"/><text fill="#000000" font-family="sans-serif" font-size="14" lengthAdjust="spacing" textLength="141.5381" x="76.2588" y="1473.3594">Admin Management</text><rect fill="#F1F1F1" height="33.9688" rx="12.5" ry="12.5" style="stroke:#181818;stroke-width:0.5;" width="178.9473" x="90.6182" y="1495.6611"/><text fill="#000000" font-family="sans-serif" font-size="12" lengthAdjust="spacing" textLength="158.9473" x="100.6182" y="1516.7998">View Student/Teacher Info</text><rect fill="#F1F1F1" height="33.9688" rx="12.5" ry="12.5" style="stroke:#181818;stroke-width:0.5;" width="163.1094" x="98.5371" y="1549.6299"/><text fill="#000000" font-family="sans-serif" font-size="12" lengthAdjust="spacing" textLength="143.1094" x="108.5371" y="1570.7686">Delete Student/Teacher</text><rect fill="#F1F1F1" height="33.9688" rx="12.5" ry="12.5" style="stroke:#181818;stroke-width:0.5;" width="193.666" x="83.2588" y="1603.5986"/><text fill="#000000" font-family="sans-serif" font-size="12" lengthAdjust="spacing" textLength="173.666" x="93.2588" y="1624.7373">Update Student/Teacher Info</text><rect fill="#F1F1F1" height="33.9688" rx="12.5" ry="12.5" style="stroke:#181818;stroke-width:0.5;" width="105.4648" x="127.3594" y="1657.5674"/><text fill="#000000" font-family="sans-serif" font-size="12" lengthAdjust="spacing" textLength="85.4648" x="137.3594" y="1678.7061">Save Changes</text><ellipse cx="180.0918" cy="1734.5361" fill="#FFFFFF" fill-opacity="0.00000" rx="11" ry="11" style="stroke:#222222;stroke-width:1;"/><ellipse cx="180.0918" cy="1734.5361" fill="#222222" rx="6" ry="6" style="stroke:#222222;stroke-width:1;"/><line style="stroke:#181818;stroke-width:1;" x1="180.0918" x2="180.0918" y1="30" y2="50"/><polygon fill="#181818" points="176.0918,40,180.0918,50,184.0918,40,180.0918,44" style="stroke:#181818;stroke-width:1;"/><line style="stroke:#181818;stroke-width:1;" x1="180.0918" x2="180.0918" y1="83.9688" y2="103.9688"/><polygon fill="#181818" points="176.0918,93.9688,180.0918,103.9688,184.0918,93.9688,180.0918,97.9688" style="stroke:#181818;stroke-width:1;"/><line style="stroke:#181818;stroke-width:1;" x1="180.0918" x2="180.0918" y1="218.2031" y2="238.2031"/><polygon fill="#181818" points="176.0918,228.2031,180.0918,238.2031,184.0918,228.2031,180.0918,232.2031" style="stroke:#181818;stroke-width:1;"/><line style="stroke:#181818;stroke-width:1;" x1="180.0918" x2="180.0918" y1="272.1719" y2="292.1719"/><polygon fill="#181818" points="176.0918,282.1719,180.0918,292.1719,184.0918,282.1719,180.0918,286.1719" style="stroke:#181818;stroke-width:1;"/><line style="stroke:#181818;stroke-width:1;" x1="248.0435" x2="248.0435" y1="414.1094" y2="434.1094"/><polygon fill="#181818" points="244.0435,424.1094,248.0435,434.1094,252.0435,424.1094,248.0435,428.1094" style="stroke:#181818;stroke-width:1;"/><line style="stroke:#181818;stroke-width:1;" x1="126.8901" x2="112.1401" y1="358.1406" y2="358.1406"/><line style="stroke:#181818;stroke-width:1;" x1="112.1401" x2="112.1401" y1="358.1406" y2="380.1406"/><polygon fill="#181818" points="108.1401,370.1406,112.1401,380.1406,116.1401,370.1406,112.1401,374.1406" style="stroke:#181818;stroke-width:1;"/><line style="stroke:#181818;stroke-width:1;" x1="233.2935" x2="248.0435" y1="358.1406" y2="358.1406"/><line style="stroke:#181818;stroke-width:1;" x1="248.0435" x2="248.0435" y1="358.1406" y2="380.1406"/><polygon fill="#181818" points="244.0435,370.1406,248.0435,380.1406,252.0435,370.1406,248.0435,374.1406" style="stroke:#181818;stroke-width:1;"/><line style="stroke:#181818;stroke-width:1;" x1="112.1401" x2="112.1401" y1="414.1094" y2="461.1094"/><line style="stroke:#181818;stroke-width:1;" x1="112.1401" x2="180.0918" y1="461.1094" y2="461.1094"/><line style="stroke:#181818;stroke-width:1;" x1="180.0918" x2="180.0918" y1="461.1094" y2="514.4063"/><polygon fill="#181818" points="176.0918,504.4063,180.0918,514.4063,184.0918,504.4063,180.0918,508.4063" style="stroke:#181818;stroke-width:1;"/><line style="stroke:#181818;stroke-width:1;" x1="180.0918" x2="180.0918" y1="326.1406" y2="346.1406"/><polygon fill="#181818" points="176.0918,336.1406,180.0918,346.1406,184.0918,336.1406,180.0918,340.1406" style="stroke:#181818;stroke-width:1;"/><line style="stroke:#181818;stroke-width:1;" x1="180.0918" x2="180.0918" y1="137.9375" y2="184.2344"/><polygon fill="#181818" points="176.0918,174.2344,180.0918,184.2344,184.0918,174.2344,180.0918,178.2344" style="stroke:#181818;stroke-width:1;"/><line style="stroke:#181818;stroke-width:1;" x1="180.0918" x2="180.0918" y1="548.375" y2="568.375"/><polygon fill="#181818" points="176.0918,558.375,180.0918,568.375,184.0918,558.375,180.0918,562.375" style="stroke:#181818;stroke-width:1;"/><line style="stroke:#181818;stroke-width:1;" x1="253.355" x2="253.355" y1="690.3125" y2="710.3125"/><polygon fill="#181818" points="249.355,700.3125,253.355,710.3125,257.355,700.3125,253.355,704.3125" style="stroke:#181818;stroke-width:1;"/><line style="stroke:#181818;stroke-width:1;" x1="118.4495" x2="106.8286" y1="634.3438" y2="634.3438"/><line style="stroke:#181818;stroke-width:1;" x1="106.8286" x2="106.8286" y1="634.3438" y2="656.3438"/><polygon fill="#181818" points="102.8286,646.3438,106.8286,656.3438,110.8286,646.3438,106.8286,650.3438" style="stroke:#181818;stroke-width:1;"/><line style="stroke:#181818;stroke-width:1;" x1="241.7341" x2="253.355" y1="634.3438" y2="634.3438"/><line style="stroke:#181818;stroke-width:1;" x1="253.355" x2="253.355" y1="634.3438" y2="656.3438"/><polygon fill="#181818" points="249.355,646.3438,253.355,656.3438,257.355,646.3438,253.355,650.3438" style="stroke:#181818;stroke-width:1;"/><line style="stroke:#181818;stroke-width:1;" x1="106.8286" x2="106.8286" y1="690.3125" y2="737.3125"/><line style="stroke:#181818;stroke-width:1;" x1="106.8286" x2="180.0918" y1="737.3125" y2="737.3125"/><line style="stroke:#181818;stroke-width:1;" x1="180.0918" x2="180.0918" y1="737.3125" y2="790.6094"/><polygon fill="#181818" points="176.0918,780.6094,180.0918,790.6094,184.0918,780.6094,180.0918,784.6094" style="stroke:#181818;stroke-width:1;"/><line style="stroke:#181818;stroke-width:1;" x1="180.0918" x2="180.0918" y1="602.3438" y2="622.3438"/><polygon fill="#181818" points="176.0918,612.3438,180.0918,622.3438,184.0918,612.3438,180.0918,616.3438" style="stroke:#181818;stroke-width:1;"/><line style="stroke:#181818;stroke-width:1;" x1="180.0918" x2="180.0918" y1="824.5781" y2="844.5781"/><polygon fill="#181818" points="176.0918,834.5781,180.0918,844.5781,184.0918,834.5781,180.0918,838.5781" style="stroke:#181818;stroke-width:1;"/><line style="stroke:#181818;stroke-width:1;" x1="180.0918" x2="180.0918" y1="878.5469" y2="898.5469"/><polygon fill="#181818" points="176.0918,888.5469,180.0918,898.5469,184.0918,888.5469,180.0918,892.5469" style="stroke:#181818;stroke-width:1;"/><line style="stroke:#181818;stroke-width:1;" x1="106.1211" x2="106.1211" y1="1020.4844" y2="1040.4844"/><polygon fill="#181818" points="102.1211,1030.4844,106.1211,1040.4844,110.1211,1030.4844,106.1211,1034.4844" style="stroke:#181818;stroke-width:1;"/><line style="stroke:#181818;stroke-width:1;" x1="106.1211" x2="106.1211" y1="1074.4531" y2="1094.4531"/><polygon fill="#181818" points="102.1211,1084.4531,106.1211,1094.4531,110.1211,1084.4531,106.1211,1088.4531" style="stroke:#181818;stroke-width:1;"/><line style="stroke:#181818;stroke-width:1;" x1="106.1211" x2="106.1211" y1="1128.4219" y2="1148.4219"/><polygon fill="#181818" points="102.1211,1138.4219,106.1211,1148.4219,110.1211,1138.4219,106.1211,1142.4219" style="stroke:#181818;stroke-width:1;"/><line style="stroke:#181818;stroke-width:1;" x1="254.0625" x2="254.0625" y1="1020.4844" y2="1040.4844"/><polygon fill="#181818" points="250.0625,1030.4844,254.0625,1040.4844,258.0625,1030.4844,254.0625,1034.4844" style="stroke:#181818;stroke-width:1;"/><line style="stroke:#181818;stroke-width:1;" x1="131.144" x2="106.1211" y1="964.5156" y2="964.5156"/><line style="stroke:#181818;stroke-width:1;" x1="106.1211" x2="106.1211" y1="964.5156" y2="986.5156"/><polygon fill="#181818" points="102.1211,976.5156,106.1211,986.5156,110.1211,976.5156,106.1211,980.5156" style="stroke:#181818;stroke-width:1;"/><line style="stroke:#181818;stroke-width:1;" x1="229.0396" x2="254.0625" y1="964.5156" y2="964.5156"/><line style="stroke:#181818;stroke-width:1;" x1="254.0625" x2="254.0625" y1="964.5156" y2="986.5156"/><polygon fill="#181818" points="250.0625,976.5156,254.0625,986.5156,258.0625,976.5156,254.0625,980.5156" style="stroke:#181818;stroke-width:1;"/><line style="stroke:#181818;stroke-width:1;" x1="106.1211" x2="106.1211" y1="1182.3906" y2="1187.3906"/><line style="stroke:#181818;stroke-width:1;" x1="106.1211" x2="180.0918" y1="1187.3906" y2="1187.3906"/><line style="stroke:#181818;stroke-width:1;" x1="180.0918" x2="180.0918" y1="1187.3906" y2="1241.4893"/><polygon fill="#181818" points="176.0918,1231.4893,180.0918,1241.4893,184.0918,1231.4893,180.0918,1235.4893" style="stroke:#181818;stroke-width:1;"/><line style="stroke:#181818;stroke-width:1;" x1="180.0918" x2="180.0918" y1="932.5156" y2="952.5156"/><polygon fill="#181818" points="176.0918,942.5156,180.0918,952.5156,184.0918,942.5156,180.0918,946.5156" style="stroke:#181818;stroke-width:1;"/><line style="stroke:#181818;stroke-width:1;" x1="180.0918" x2="180.0918" y1="1275.458" y2="1295.458"/><polygon fill="#181818" points="176.0918,1285.458,180.0918,1295.458,184.0918,1285.458,180.0918,1289.458" style="stroke:#181818;stroke-width:1;"/><line style="stroke:#181818;stroke-width:1;" x1="180.0918" x2="180.0918" y1="1329.4268" y2="1349.4268"/><polygon fill="#181818" points="176.0918,1339.4268,180.0918,1349.4268,184.0918,1339.4268,180.0918,1343.4268" style="stroke:#181818;stroke-width:1;"/><line style="stroke:#181818;stroke-width:1;" x1="180.0918" x2="180.0918" y1="1383.3955" y2="1403.3955"/><polygon fill="#181818" points="176.0918,1393.3955,180.0918,1403.3955,184.0918,1393.3955,180.0918,1397.3955" style="stroke:#181818;stroke-width:1;"/><line style="stroke:#181818;stroke-width:1;" x1="180.0918" x2="180.0918" y1="1529.6299" y2="1549.6299"/><polygon fill="#181818" points="176.0918,1539.6299,180.0918,1549.6299,184.0918,1539.6299,180.0918,1543.6299" style="stroke:#181818;stroke-width:1;"/><line style="stroke:#181818;stroke-width:1;" x1="180.0918" x2="180.0918" y1="1583.5986" y2="1603.5986"/><polygon fill="#181818" points="176.0918,1593.5986,180.0918,1603.5986,184.0918,1593.5986,180.0918,1597.5986" style="stroke:#181818;stroke-width:1;"/><line style="stroke:#181818;stroke-width:1;" x1="180.0918" x2="180.0918" y1="1637.5674" y2="1657.5674"/><polygon fill="#181818" points="176.0918,1647.5674,180.0918,1657.5674,184.0918,1647.5674,180.0918,1651.5674" style="stroke:#181818;stroke-width:1;"/><line style="stroke:#181818;stroke-width:1;" x1="180.0918" x2="180.0918" y1="1437.3643" y2="1495.6611"/><polygon fill="#181818" points="176.0918,1485.6611,180.0918,1495.6611,184.0918,1485.6611,180.0918,1489.6611" style="stroke:#181818;stroke-width:1;"/><line style="stroke:#181818;stroke-width:1;" x1="180.0918" x2="180.0918" y1="1691.5361" y2="1723.5361"/><polygon fill="#181818" points="176.0918,1713.5361,180.0918,1723.5361,184.0918,1713.5361,180.0918,1717.5361" style="stroke:#181818;stroke-width:1;"/><!--SRC=[hPDDRuCm38Rl_0gh9oeXxLuEqzHsqgHzLANjFIC6B8K49UcgQjf_No100RNRfTpmQvldjR6nJDiWMBogd2HiM8vni4XGO6fXRr33LWc4y8cN92D8x96Zj17iaAK5wdaS19LhG9QKX5b2kJnMy2pKQGRV0RXdiPRMTNbd9KQmBXc9o7t5c9FIFFOP2Khk9JYWfenILhThrIPqzheFKGRXC1tvunniWHB2CvfvazEKhiXKWfrXwAqMK1XdIQehgMkjbOxxkB6gyYMIKnRyZDpwjbVCUZZcN4sSjbwM6kif4XFcukZ01F6XTCFK5ZdfUZjMmOgPubEnhl-TV3qhdIlRizzqE5pVnsupzjW7Qc_kvRzTjRy9dYOpQyIbaXdfyfQyhpYpU4tfx2V7D4LZxZgcZLOPkTjuOzBzMQNR6eJjVJnqvz6FxK0rkgze1zLHZu89- -f3i2oOpB6bxXbz7RyKZh6QInr0ZH4cWF0YCzNrTqVlU2OPOzW_oXlodjWnrSFx1G00]--></g></svg>