<svg width="48" height="48" viewBox="0 0 48 48" fill="none" xmlns="http://www.w3.org/2000/svg">
<path d="M18 26.0003L16 24.0003L20.59 19.4103C20.8552 19.1451 21.2149 18.9961 21.59 18.9961C21.9651 18.9961 22.3248 19.1451 22.59 19.4103C22.8552 19.6755 23.0042 20.0352 23.0042 20.4103C23.0042 20.7854 22.8552 21.1451 22.59 21.4103L18 26.0003Z" fill="url(#paint0_linear_380_8750)"/>
<path d="M24 32.0003L22 30.0003L26.59 25.4103C26.8552 25.1451 27.2149 24.9961 27.59 24.9961C27.9651 24.9961 28.3248 25.1451 28.59 25.4103C28.8552 25.6755 29.0042 26.0352 29.0042 26.4103C29.0042 26.7854 28.8552 27.1451 28.59 27.4103L24 32.0003Z" fill="url(#paint1_linear_380_8750)"/>
<path d="M3.11973 47C2.70227 46.9957 2.29528 46.8688 1.94934 46.6351C1.6034 46.4014 1.33377 46.0712 1.17396 45.6855C1.01415 45.2998 0.971199 44.8757 1.05045 44.4658C1.1297 44.0559 1.32766 43.6783 1.61973 43.38L9.99973 35L12.9997 38L4.61973 46.38C4.42301 46.5772 4.18918 46.7336 3.93173 46.84C3.67428 46.9464 3.3983 47.0008 3.11973 47Z" fill="url(#paint2_linear_380_8750)"/>
<path d="M44.88 1.00001C45.2975 1.00432 45.7044 1.13121 46.0504 1.36492C46.3963 1.59863 46.666 1.92884 46.8258 2.31453C46.9856 2.70021 47.0285 3.12435 46.9493 3.53424C46.87 3.94413 46.6721 4.3217 46.38 4.62001L38 13L35 10L43.38 1.62001C43.5767 1.42276 43.8106 1.26642 44.068 1.16001C44.3255 1.05359 44.6014 0.999216 44.88 1.00001Z" fill="url(#paint3_linear_380_8750)"/>
<path d="M38.4599 22.9996L34.7099 26.7596C34.617 26.8533 34.5064 26.9277 34.3845 26.9785C34.2627 27.0292 34.132 27.0554 33.9999 27.0554C33.8679 27.0554 33.7372 27.0292 33.6154 26.9785C33.4935 26.9277 33.3829 26.8533 33.2899 26.7596L21.2899 14.7596C21.1962 14.6666 21.1218 14.556 21.071 14.4341C21.0203 14.3123 20.9941 14.1816 20.9941 14.0496C20.9941 13.9176 21.0203 13.7869 21.071 13.665C21.1218 13.5431 21.1962 13.4325 21.2899 13.3396L25.0499 9.58957C25.7 8.93948 26.4717 8.4238 27.321 8.07197C28.1703 7.72015 29.0806 7.53906 29.9999 7.53906C30.9193 7.53906 31.8296 7.72015 32.6789 8.07197C33.5282 8.4238 34.2999 8.93948 34.9499 9.58957L38.4599 13.0996C39.11 13.7496 39.6257 14.5213 39.9775 15.3706C40.3294 16.2199 40.5104 17.1303 40.5104 18.0496C40.5104 18.9689 40.3294 19.8792 39.9775 20.7285C39.6257 21.5778 39.11 22.3495 38.4599 22.9996Z" fill="url(#paint4_linear_380_8750)"/>
<path d="M26.7098 34.7097L22.9998 38.4597C22.3497 39.1098 21.578 39.6255 20.7287 39.9773C19.8794 40.3292 18.9691 40.5103 18.0498 40.5103C17.1304 40.5103 16.2201 40.3292 15.3708 39.9773C14.5215 39.6255 13.7498 39.1098 13.0998 38.4597L9.53976 34.9997C8.88968 34.3497 8.374 33.578 8.02217 32.7287C7.67034 31.8794 7.48926 30.9691 7.48926 30.0497C7.48926 29.1304 7.67034 28.2201 8.02217 27.3708C8.374 26.5215 8.88968 25.7498 9.53976 25.0997L13.2898 21.3397C13.3827 21.246 13.4933 21.1716 13.6152 21.1209C13.737 21.0701 13.8678 21.0439 13.9998 21.0439C14.1318 21.0439 14.2625 21.0701 14.3843 21.1209C14.5062 21.1716 14.6168 21.246 14.7098 21.3397L26.7098 33.3397C26.8841 33.5252 26.9812 33.7702 26.9812 34.0247C26.9812 34.2793 26.8841 34.5243 26.7098 34.7097Z" fill="url(#paint5_linear_380_8750)"/>
<path d="M37 30C35.6155 30 34.2622 30.4105 33.111 31.1797C31.9599 31.9489 31.0627 33.0421 30.5328 34.3212C30.003 35.6003 29.8644 37.0078 30.1345 38.3656C30.4046 39.7235 31.0713 40.9708 32.0503 41.9497C33.0292 42.9287 34.2765 43.5954 35.6344 43.8655C36.9922 44.1356 38.3997 43.997 39.6788 43.4672C40.9579 42.9373 42.0511 42.0401 42.8203 40.889C43.5895 39.7378 44 38.3845 44 37C44 35.1435 43.2625 33.363 41.9498 32.0503C40.637 30.7375 38.8565 30 37 30ZM37 32C37.9781 32.0017 38.9343 32.2903 39.75 32.83L32.83 39.75C32.3338 38.9966 32.0508 38.123 32.0107 37.2218C31.9707 36.3205 32.1753 35.4253 32.6027 34.6309C33.0302 33.8364 33.6646 33.1725 34.4387 32.7093C35.2129 32.2461 36.0979 32.0011 37 32ZM37 42C36.0219 41.9983 35.0658 41.7097 34.25 41.17L41.17 34.25C41.6662 35.0034 41.9493 35.877 41.9893 36.7782C42.0293 37.6795 41.8247 38.5747 41.3973 39.3691C40.9698 40.1636 40.3354 40.8275 39.5613 41.2907C38.7871 41.7539 37.9021 41.9989 37 42Z" fill="url(#paint6_linear_380_8750)"/>
<path d="M13.0002 13.0002C12.4602 13.0002 12.4302 12.8502 10.2902 10.7102C10.1019 10.5219 9.99609 10.2665 9.99609 10.0002C9.99609 9.73388 10.1019 9.47849 10.2902 9.29018C10.4785 9.10188 10.7339 8.99609 11.0002 8.99609C11.2665 8.99609 11.5219 9.10188 11.7102 9.29018L13.7102 11.2902C13.8512 11.4301 13.9474 11.6088 13.9865 11.8035C14.0255 11.9983 14.0057 12.2002 13.9296 12.3837C13.8534 12.5671 13.7243 12.7237 13.5588 12.8335C13.3933 12.9433 13.1988 13.0013 13.0002 13.0002Z" fill="url(#paint7_linear_380_8750)"/>
<path d="M11 18H8C7.73478 18 7.48043 17.8946 7.29289 17.7071C7.10536 17.5196 7 17.2652 7 17C7 16.7348 7.10536 16.4804 7.29289 16.2929C7.48043 16.1054 7.73478 16 8 16H11C11.2652 16 11.5196 16.1054 11.7071 16.2929C11.8946 16.4804 12 16.7348 12 17C12 17.2652 11.8946 17.5196 11.7071 17.7071C11.5196 17.8946 11.2652 18 11 18Z" fill="url(#paint8_linear_380_8750)"/>
<path d="M18 11C17.7348 11 17.4804 10.8946 17.2929 10.7071C17.1054 10.5196 17 10.2652 17 10V7C17 6.73478 17.1054 6.48043 17.2929 6.29289C17.4804 6.10536 17.7348 6 18 6C18.2652 6 18.5196 6.10536 18.7071 6.29289C18.8946 6.48043 19 6.73478 19 7V10C19 10.2652 18.8946 10.5196 18.7071 10.7071C18.5196 10.8946 18.2652 11 18 11Z" fill="url(#paint9_linear_380_8750)"/>
<path d="M15.0002 35.0002C14.4702 35.0002 14.3302 34.7402 13.2902 33.7102C13.1019 33.5219 12.9961 33.2665 12.9961 33.0002C12.9961 32.7339 13.1019 32.4785 13.2902 32.2902C13.4785 32.1019 13.7339 31.9961 14.0002 31.9961C14.2665 31.9961 14.5219 32.1019 14.7102 32.2902L15.7102 33.2902C15.8512 33.4301 15.9474 33.6088 15.9865 33.8035C16.0255 33.9983 16.0057 34.2002 15.9296 34.3837C15.8534 34.5671 15.7243 34.7237 15.5588 34.8335C15.3933 34.9433 15.1988 35.0013 15.0002 35.0002Z" fill="#4795EA"/>
<path d="M19.0002 33.0002C18.8686 33.0009 18.7381 32.9757 18.6163 32.926C18.4944 32.8762 18.3836 32.8029 18.2902 32.7102L15.2902 29.7102C15.1019 29.5219 14.9961 29.2665 14.9961 29.0002C14.9961 28.7339 15.1019 28.4785 15.2902 28.2902C15.4785 28.1019 15.7339 27.9961 16.0002 27.9961C16.2665 27.9961 16.5219 28.1019 16.7102 28.2902L19.7102 31.2902C19.8512 31.4301 19.9474 31.6088 19.9865 31.8035C20.0255 31.9983 20.0057 32.2002 19.9296 32.3837C19.8534 32.5671 19.7243 32.7237 19.5588 32.8335C19.3933 32.9433 19.1988 33.0013 19.0002 33.0002Z" fill="#4795EA"/>
<defs>
<linearGradient id="paint0_linear_380_8750" x1="17" y1="25" x2="23" y2="19" gradientUnits="userSpaceOnUse">
<stop stop-color="#FE2B2B"/>
<stop offset="1" stop-color="#FF9E9E"/>
</linearGradient>
<linearGradient id="paint1_linear_380_8750" x1="23" y1="31" x2="29" y2="25" gradientUnits="userSpaceOnUse">
<stop stop-color="#FE2B2B"/>
<stop offset="1" stop-color="#FF9E9E"/>
</linearGradient>
<linearGradient id="paint2_linear_380_8750" x1="18.5129" y1="45.1068" x2="4.9842" y2="49.8677" gradientUnits="userSpaceOnUse">
<stop stop-color="#D3E6F5"/>
<stop offset="0.46" stop-color="#DEECF8"/>
<stop offset="1" stop-color="#F0F7FC"/>
</linearGradient>
<linearGradient id="paint3_linear_380_8750" x1="30.5002" y1="1.86981" x2="44.0454" y2="-2.88931" gradientUnits="userSpaceOnUse">
<stop stop-color="#D3E6F5"/>
<stop offset="0.46" stop-color="#DEECF8"/>
<stop offset="1" stop-color="#F0F7FC"/>
</linearGradient>
<linearGradient id="paint4_linear_380_8750" x1="27.2899" y1="20.7096" x2="36.7099" y2="11.2896" gradientUnits="userSpaceOnUse">
<stop stop-color="#54A5FF"/>
<stop offset="1" stop-color="#8AD3FE"/>
</linearGradient>
<linearGradient id="paint5_linear_380_8750" x1="11.2898" y1="36.7097" x2="20.7098" y2="27.2897" gradientUnits="userSpaceOnUse">
<stop stop-color="#54A5FF"/>
<stop offset="1" stop-color="#8AD3FE"/>
</linearGradient>
<linearGradient id="paint6_linear_380_8750" x1="31" y1="30" x2="44" y2="37" gradientUnits="userSpaceOnUse">
<stop stop-color="#FE2B2B"/>
<stop offset="1" stop-color="#FF9E9E"/>
</linearGradient>
<linearGradient id="paint7_linear_380_8750" x1="10.2825" y1="8.99609" x2="12.1003" y2="12.549" gradientUnits="userSpaceOnUse">
<stop stop-color="#FE2B2B"/>
<stop offset="1" stop-color="#FF9E9E"/>
</linearGradient>
<linearGradient id="paint8_linear_380_8750" x1="7.35714" y1="16" x2="7.79757" y2="18.1489" gradientUnits="userSpaceOnUse">
<stop stop-color="#FE2B2B"/>
<stop offset="1" stop-color="#FF9E9E"/>
</linearGradient>
<linearGradient id="paint9_linear_380_8750" x1="17.1429" y1="6" x2="19.8582" y2="8.11974" gradientUnits="userSpaceOnUse">
<stop stop-color="#FE2B2B"/>
<stop offset="1" stop-color="#FF9E9E"/>
</linearGradient>
</defs>
</svg>
